<?xml version="1.0" encoding="utf-8"?>
<!-- Generator: Adobe Illustrator 27.2.0, SVG Export Plug-In . SVG Version: 6.00 Build 0)  -->
<svg version="1.1" id="Layer_1" xmlns="http://www.w3.org/2000/svg" xmlns:xlink="http://www.w3.org/1999/xlink" x="0px" y="0px"
	 viewBox="0 0 360 360" style="enable-background:new 0 0 360 360;" xml:space="preserve">
<style type="text/css">
	.st0{fill:none;stroke:#000000;stroke-width:4;stroke-miterlimit:10;}
</style>
<path class="st0" d="M311.3,265.6l21-21.9l-30.1-3.3l-14.3-26.7l-6.1,13.5c-7.2-26.9-11.4-47.3-12.6-61.3
	c-3.6-2.6-14.6-5.5-33.1-8.7c-9.7-1.7-18.1-2.9-25.5-3.7l2.2-21.5l-23.5,14.5c-13.9-5-27.7-10-41.6-15.1c-13-5.3-19.6-14.3-19.6-27
	c0-7.6,2.5-14.4,7.6-20.4c5-6,11.4-9.1,19-9.4c2.5-0.1,3.7,2.8,3.7,8.9c0,3.4-0.4,8.8-1.3,16.2c-0.9,7.5-1.3,12.2-1.3,14.3
	c0,2.4,0.2,3.8,0.7,4.2c3.9,3.1,13.3,6,28,8.6c13.3,2.5,22.4,3.6,27.3,3.2c8.6-0.7,13.2-4.1,13.6-10.3c0.2-1.5-0.2-3.1-1.5-4.6
	c-1.5-2.2-2.3-3.9-2.6-4.9c0-1.5,0.1-4.2,0.4-8c0.2-4.4,0.4-7.7,0.4-9.9c0-12.1-3.4-20.6-10.3-25.5c-4.4-3.2-10.3-5.7-17.5-7.4
	c-7.3-1.7-14.4-3.3-21.6-4.9c-28.8-6.9-46-10-51.6-9.3c-6.9,0.9-13.7,3.1-20.3,6.4l-4.5-25.8L72.9,51.4l-34.4-4.9l17,30.3L40.2,108
	l22.4-4.5c1.3,9.6,7.7,18.2,19.1,25.6c12.3,8,33.7,16.7,64.2,26.2c8.7,2.7,14.5,7.1,17.5,13.2l-17.3,19.4l17.9,1.3
	c-0.8,2-1.8,3.8-3.2,5.6c-3.3,4.4-7.3,6.6-12,6.6c-1.2,0-2.3-0.1-3.3-0.4c-4.4-1-7.7-5.7-10-14.1c-2.5-9.1-4.4-14.2-5.9-15.2
	c-1.5-1-8.4-2.1-20.8-3.3c-12.4-1.2-22.9-1.8-31.5-1.8c-3.9,0-6.6,0.1-8.1,0.4c-3,0.6-5.5,1.9-7.6,3.9c-2.1,2-2.8,4.1-2,6.2
	c2.7,2.8,5,4.8,7,5.9c2.7,2.3,6.6,7.8,11.8,16.7c4.2,7.6,9.6,13.1,16.2,16.5c4.4,2.4,9.6,4,15.7,4.7c6,0.8,12,1.5,17.9,2.2
	c0.5,0,6.4,0.9,17.7,2.7c3.8,0.6,7.5,1,11,1.2l-14.4,31.4c-12.5,4.2-19,7.1-19.4,8.7c-0.2,0.8-0.3,1.6-0.3,2.2
	c0,2.8,2.2,5.7,6.7,8.5c-1.1,2.4-5,9.1-11.8,19.9c-4.9,7.4-6.9,12.1-6,14c0.4,1.1,6.6,3.3,18.6,6.7c12,3.4,20.5,5.1,25.6,5.1
	c1.3,0,2.2-0.1,2.9-0.4c3-1.1,4.8-2.5,5.6-4.2c0.7-1.7,1.4-3.5,2.1-5.4c5.3-8.5,9.5-15.7,12.7-21.5c4.7-2,14.7-4.6,30.2-7.6
	c15.5-3,27.3-4.9,35.3-5.6c3,5.9,5.6,13.4,8,22.5c1.7,6.9,3.4,10.9,5.1,12.2c4,3,11.7,5.5,22.9,7.7c10.4,2.3,19.1,3.4,26.1,3.4
	c2.5,0,4.3-0.2,5.4-0.6c1.5-1.2,2.3-3,2.5-5.5c0.6-4.6,1.1-7.5,1.3-8.7c-4.3-5.5-8.6-12.7-12.8-21.7l14.3,6.9L311.3,265.6z
	 M198.2,254.1c0.4-3.1,3.7-10.8,9.9-23.1c2.8-5.8,5.5-11,8-15.6c3-1.9,5.5-3.9,7.6-6c0.9,7.6,2.3,15,4.1,22.2
	c0.6,2.7,2.3,8.3,5.1,16.8C213.8,251.2,202.2,253.1,198.2,254.1z"/>
</svg>
